<svg width="48.000000" height="48.000000" viewBox="0 0 48 48" fill="none" xmlns="http://www.w3.org/2000/svg" xmlns:xlink="http://www.w3.org/1999/xlink">
	<desc>
			Created with Pixso.
	</desc>
	<defs>
		<clipPath id="clip9_511">
			<rect id="User Interface / Chat Text" rx="0.000000" width="31.000000" height="31.000000" transform="translate(0.500000 16.500000)" fill="white" fill-opacity="0"/>
		</clipPath>
		<linearGradient x1="30.000000" y1="0.000000" x2="30.000000" y2="36.000000" id="paint_linear_9_510_0" gradientUnits="userSpaceOnUse">
			<stop stop-color="#DEDEDE"/>
			<stop offset="1.000000" stop-color="#DEDEDE" stop-opacity="0.000000"/>
		</linearGradient>
	</defs>
	<path id="Polygon 1" d="M26.81 3.18L15.18 14.81C13.42 16.57 13.42 19.42 15.18 21.18L26.81 32.81C28.57 34.57 31.42 34.57 33.18 32.81L44.81 21.18C46.57 19.42 46.57 16.57 44.81 14.81L33.18 3.18C31.42 1.42 28.57 1.42 26.81 3.18Z" fill="url(#paint_linear_9_510_0)" fill-opacity="1.000000" fill-rule="evenodd"/>
	<g clip-path="url(#clip9_511)">
		<path id="Shape" d="M4 39.03L4 28.53C4 25.54 4 24.05 4.58 22.91C5.09 21.9 5.9 21.09 6.91 20.58C8.05 20 9.54 20 12.53 20L19.46 20C22.45 20 23.94 20 25.08 20.58C26.09 21.09 26.9 21.9 27.41 22.91C28 24.05 28 25.54 28 28.53L28 30.13C28 33.12 28 34.61 27.41 35.75C26.9 36.75 26.09 37.57 25.08 38.08C23.94 38.66 22.45 38.66 19.46 38.66L13.81 38.66C13.14 38.66 12.8 38.66 12.49 38.74C12.21 38.81 11.95 38.92 11.71 39.07C11.43 39.24 11.2 39.48 10.74 39.97L9.5 41.25C7.78 43.03 6.92 43.92 6.18 43.99C5.53 44.05 4.9 43.8 4.48 43.31C4 42.74 4 41.51 4 39.03Z" fill="#90ECF4" fill-opacity="1.000000" fill-rule="nonzero"/>
		<path id="Shape" d="M9.33 26.66C9.33 25.93 9.93 25.33 10.66 25.33L21.33 25.33C22.06 25.33 22.66 25.93 22.66 26.66C22.66 27.4 22.06 27.99 21.33 27.99L10.66 27.99C9.93 27.99 9.33 27.4 9.33 26.66ZM9.33 31.99C9.33 31.26 9.93 30.66 10.66 30.66L14.66 30.66C15.4 30.66 15.99 31.26 15.99 31.99C15.99 32.73 15.4 33.33 14.66 33.33L10.66 33.33C9.93 33.33 9.33 32.73 9.33 31.99Z" fill="#444BD3" fill-opacity="1.000000" fill-rule="evenodd"/>
	</g>
</svg>
