<svg width="24.000000" height="23.852539" viewBox="0 0 24 23.8525" fill="none" xmlns="http://www.w3.org/2000/svg" xmlns:xlink="http://www.w3.org/1999/xlink">
	<desc>
			Created with Pixso.
	</desc>
	<defs/>
	<path id="fb" d="M24 11.99C23.99 9.7 23.34 7.45 22.1 5.52C20.86 3.59 19.1 2.06 17.02 1.1C14.93 0.14 12.62 -0.21 10.35 0.11C8.08 0.42 5.94 1.38 4.2 2.87C2.46 4.36 1.18 6.32 0.51 8.51C-0.15 10.71 -0.18 13.05 0.45 15.25C1.07 17.46 2.31 19.44 4.03 20.97C5.74 22.49 7.85 23.49 10.12 23.85L10.12 15.46L7.07 15.46L7.07 11.99L10.12 11.99L10.12 9.35C10.12 6.34 11.91 4.68 14.65 4.68C15.55 4.69 16.45 4.77 17.34 4.91L17.34 7.87L15.83 7.87C15.57 7.83 15.31 7.86 15.06 7.94C14.81 8.02 14.58 8.16 14.4 8.34C14.21 8.52 14.06 8.74 13.97 8.98C13.88 9.22 13.85 9.48 13.87 9.74L13.87 11.99L17.2 11.99L16.67 15.46L13.87 15.46L13.87 23.85C16.69 23.4 19.26 21.96 21.12 19.79C22.98 17.62 24 14.85 24 11.99Z" fill="#121127" fill-opacity="0.320000" fill-rule="nonzero"/>
</svg>
