<svg width="24.000000" height="23.411621" viewBox="0 0 24 23.4116" fill="none" xmlns="http://www.w3.org/2000/svg" xmlns:xlink="http://www.w3.org/1999/xlink">
	<desc>
			Created with Pixso.
	</desc>
	<defs/>
	<path id="github" d="M12 0C5.39 0 0 5.39 0 12C0 17.32 3.45 21.82 8.17 23.39C8.77 23.47 9 23.17 9 22.8C9 22.5 9 21.75 9 20.77C5.62 21.52 4.95 19.2 4.95 19.2C4.42 17.85 3.6 17.47 3.6 17.47C2.47 16.72 3.67 16.72 3.67 16.72C4.87 16.79 5.54 17.92 5.54 17.92C6.6 19.72 8.32 19.2 9.07 18.89C9.14 18.14 9.52 17.62 9.82 17.32C7.12 17.02 4.35 15.97 4.35 11.39C4.35 10.12 4.79 9 5.54 8.17C5.39 7.87 5.02 6.67 5.7 5.02C5.7 5.02 6.67 4.72 9 6.22C9.97 5.92 10.95 5.85 12 5.85C13.05 5.85 14.02 6 15 6.22C17.32 4.64 18.29 4.94 18.29 4.94C18.97 6.6 18.52 7.8 18.45 8.1C19.2 8.92 19.65 9.97 19.65 11.32C19.65 15.89 16.87 16.95 14.17 17.25C14.62 17.62 15 18.37 15 19.5C15 21.07 15 22.42 15 22.8C15 23.1 15.22 23.47 15.82 23.39C20.55 21.82 24 17.32 24 12C24 5.39 18.6 0 12 0Z" fill="#121127" fill-opacity="0.320000" fill-rule="evenodd"/>
</svg>
