<svg width="22.504517" height="22.502197" viewBox="0 0 22.5045 22.5022" fill="none" xmlns="http://www.w3.org/2000/svg" xmlns:xlink="http://www.w3.org/1999/xlink">
	<desc>
			Created with Pixso.
	</desc>
	<defs/>
	<path id="Vector" d="M11.25 2.02C14.25 2.02 14.61 2.03 15.79 2.09C16.5 2.09 17.21 2.22 17.88 2.47C18.37 2.65 18.81 2.94 19.17 3.31C19.55 3.68 19.83 4.12 20.01 4.61C20.26 5.28 20.39 5.98 20.4 6.7C20.46 7.88 20.47 8.25 20.47 11.25C20.47 14.25 20.46 14.61 20.4 15.79C20.4 16.5 20.27 17.21 20.02 17.88C19.83 18.37 19.54 18.81 19.18 19.17C18.81 19.54 18.37 19.83 17.88 20.01C17.21 20.26 16.51 20.39 15.79 20.4C14.61 20.46 14.25 20.47 11.25 20.47C8.24 20.47 7.89 20.46 6.7 20.4C5.99 20.39 5.28 20.26 4.61 20.01C4.12 19.83 3.68 19.55 3.32 19.17C2.95 18.81 2.66 18.37 2.48 17.88C2.23 17.21 2.1 16.5 2.09 15.79C2.03 14.61 2.02 14.25 2.02 11.25C2.02 8.24 2.03 7.88 2.09 6.7C2.09 5.99 2.22 5.28 2.47 4.61C2.65 4.12 2.94 3.68 3.32 3.32C3.68 2.94 4.12 2.66 4.61 2.48C5.28 2.23 5.99 2.1 6.7 2.09C7.89 2.03 8.25 2.02 11.25 2.02ZM11.25 0C8.19 0 7.81 0.01 6.61 0.06C5.67 0.08 4.75 0.26 3.88 0.59C3.13 0.87 2.45 1.31 1.88 1.88C1.31 2.45 0.87 3.13 0.59 3.88C0.26 4.75 0.08 5.67 0.06 6.61C0.01 7.81 0 8.19 0 11.25C0 14.3 0.01 14.68 0.06 15.88C0.08 16.82 0.26 17.74 0.59 18.61C0.87 19.36 1.31 20.04 1.89 20.61C2.45 21.18 3.13 21.62 3.88 21.9C4.75 22.23 5.68 22.41 6.61 22.43C7.81 22.48 8.19 22.5 11.25 22.5C14.3 22.5 14.69 22.48 15.89 22.43C16.82 22.41 17.74 22.23 18.62 21.9C19.36 21.62 20.04 21.17 20.61 20.61C21.18 20.04 21.62 19.36 21.91 18.61C22.23 17.74 22.41 16.82 22.43 15.88C22.49 14.68 22.5 14.3 22.5 11.25C22.5 8.19 22.49 7.81 22.43 6.61C22.41 5.67 22.23 4.75 21.91 3.88C21.62 3.13 21.18 2.45 20.61 1.88C20.05 1.31 19.37 0.87 18.62 0.59C17.74 0.26 16.82 0.08 15.89 0.06C14.68 0.01 14.3 0 11.25 0Z" fill="#121127" fill-opacity="0.320000" fill-rule="nonzero"/>
	<path id="Vector" d="M11.25 5.47C10.1 5.47 8.99 5.81 8.04 6.44C7.09 7.08 6.35 7.98 5.91 9.04C5.47 10.09 5.36 11.25 5.58 12.37C5.8 13.49 6.35 14.52 7.16 15.33C7.97 16.14 9 16.69 10.12 16.91C11.24 17.13 12.4 17.02 13.46 16.58C14.51 16.14 15.41 15.4 16.05 14.45C16.68 13.5 17.02 12.39 17.02 11.25C17.02 9.71 16.41 8.24 15.33 7.16C14.25 6.08 12.78 5.47 11.25 5.47ZM11.25 15C10.5 15 9.78 14.78 9.16 14.36C8.54 13.95 8.06 13.37 7.78 12.68C7.5 12 7.42 11.24 7.57 10.51C7.71 9.79 8.07 9.12 8.59 8.59C9.12 8.07 9.79 7.71 10.51 7.57C11.24 7.42 11.99 7.5 12.68 7.78C13.37 8.06 13.95 8.55 14.36 9.16C14.78 9.78 15 10.5 15 11.25C15 12.24 14.6 13.19 13.9 13.9C13.19 14.6 12.24 15 11.25 15Z" fill="#121127" fill-opacity="0.320000" fill-rule="nonzero"/>
	<path id="Vector" d="M18.6 5.24C18.6 5.99 18 6.59 17.25 6.59C16.5 6.59 15.9 5.99 15.9 5.24C15.9 4.49 16.5 3.89 17.25 3.89C18 3.89 18.6 4.49 18.6 5.24Z" fill="#121127" fill-opacity="0.320000" fill-rule="evenodd"/>
</svg>
