<svg width="41.653831" height="41.654510" viewBox="0 0 41.6538 41.6545" fill="none" xmlns="http://www.w3.org/2000/svg" xmlns:xlink="http://www.w3.org/1999/xlink">
	<desc>
			Created with Pixso.
	</desc>
	<defs/>
	<path id="Ellipse 2627" d="M35.22 18.22C36.18 21.82 35.82 25.46 34.43 28.62C32.95 32.04 30.4 34.66 27.34 36.27C24.05 38.01 20.42 38.47 17.03 37.82C13.37 37.13 10.25 35.23 8 32.61C5.57 29.79 4.31 26.35 4.19 22.9C4.04 19.18 5.21 15.71 7.26 12.94C9.47 9.94 12.54 7.95 15.88 7.06L19.96 22.31L35.22 18.22Z" fill="#F15060" fill-opacity="1.000000" fill-rule="evenodd"/>
	<path id="Ellipse 2628" d="M17.59 4.08C20.37 3.34 23.17 3.38 25.77 4.08C28.54 4.83 30.95 6.27 32.85 8.17C34.88 10.2 36.24 12.65 36.93 15.25L21.68 19.33L17.59 4.08Z" fill="#FF7482" fill-opacity="1.000000" fill-rule="evenodd"/>
</svg>
