<svg width="48.000000" height="48.000000" viewBox="0 0 48 48" fill="none" xmlns="http://www.w3.org/2000/svg" xmlns:xlink="http://www.w3.org/1999/xlink">
	<desc>
			Created with Pixso.
	</desc>
	<defs>
		<clipPath id="clip9_492">
			<rect id="User Interface / Search" rx="0.000000" width="31.000000" height="31.000000" transform="translate(0.500000 16.500000)" fill="white" fill-opacity="0"/>
		</clipPath>
		<linearGradient x1="30.000000" y1="0.000000" x2="30.000000" y2="36.000000" id="paint_linear_9_491_0" gradientUnits="userSpaceOnUse">
			<stop stop-color="#DEDEDE"/>
			<stop offset="1.000000" stop-color="#DEDEDE" stop-opacity="0.000000"/>
		</linearGradient>
	</defs>
	<path id="Polygon 1" d="M26.81 3.18L15.18 14.81C13.42 16.57 13.42 19.42 15.18 21.18L26.81 32.81C28.57 34.57 31.42 34.57 33.18 32.81L44.81 21.18C46.57 19.42 46.57 16.57 44.81 14.81L33.18 3.18C31.42 1.42 28.57 1.42 26.81 3.18Z" fill="url(#paint_linear_9_491_0)" fill-opacity="1.000000" fill-rule="evenodd"/>
	<g clip-path="url(#clip9_492)">
		<path id="Shape" d="M17.05 33.05C17.57 32.53 18.42 32.53 18.94 33.05L27.6 41.72C28.13 42.24 28.13 43.08 27.6 43.6C27.08 44.13 26.24 44.13 25.72 43.6L17.05 34.94C16.53 34.42 16.53 33.57 17.05 33.05Z" fill="#90ECF4" fill-opacity="1.000000" fill-rule="evenodd"/>
		<path id="Shape" d="M13.33 20C8.17 20 4 24.17 4 29.33C4 34.48 8.17 38.66 13.33 38.66C18.48 38.66 22.66 34.48 22.66 29.33C22.66 24.17 18.48 20 13.33 20Z" fill="#444BD3" fill-opacity="1.000000" fill-rule="nonzero"/>
	</g>
</svg>
