<svg width="149.244476" height="150.244446" viewBox="0 0 149.244 150.244" fill="none" xmlns="http://www.w3.org/2000/svg" xmlns:xlink="http://www.w3.org/1999/xlink">
	<desc>
			Created with Pixso.
	</desc>
	<defs/>
	<path id="Vector 1962" d="M124.45 26.26L133.09 32.29C135.78 34.17 135.19 38.3 132.09 39.36L122.3 42.68C119.1 43.78 116.07 40.64 117.28 37.47L118.31 34.78C118.54 34.17 118.62 33.51 118.54 32.86L118.19 30.03C117.76 26.59 121.61 24.27 124.45 26.26Z" fill="#FFBB24" fill-opacity="1.000000" fill-rule="nonzero"/>
	<g opacity="0.200000">
		<path id="Vector 1964" d="M115.78 33.54C56.4 28.55 13.09 71.42 48.73 100.59C61.38 110.93 77.08 109.78 86.66 100.2C97.39 89.47 98.92 71.85 88.19 61.12C64.44 37.37 6.59 62.27 48.35 149.24" stroke="#F15060" stroke-opacity="1.000000" stroke-width="2.000000" stroke-dasharray="5.2 5.2"/>
	</g>
</svg>
