<svg width="24.074997" height="19.500000" viewBox="0 0 24.075 19.5" fill="none" xmlns="http://www.w3.org/2000/svg" xmlns:xlink="http://www.w3.org/1999/xlink">
	<desc>
			Created with Pixso.
	</desc>
	<defs/>
	<path id="twitter" d="M24.07 2.32C23.17 2.69 22.27 3 21.22 3.07C22.27 2.47 23.02 1.5 23.4 0.37C22.42 0.97 21.37 1.35 20.25 1.57C19.35 0.6 18.07 0 16.72 0C14.02 0 11.77 2.17 11.77 4.94C11.77 5.32 11.85 5.69 11.92 6.07C7.8 5.85 4.19 3.89 1.72 0.89C1.27 1.64 1.04 2.47 1.04 3.37C1.04 5.1 1.95 6.6 3.22 7.5C2.39 7.5 1.64 7.27 0.97 6.89L0.97 6.97C0.97 9.37 2.7 11.32 4.94 11.77C4.5 11.85 4.12 11.92 3.67 11.92C3.37 11.92 3.07 11.92 2.77 11.85C3.37 13.8 5.25 15.22 7.35 15.3C5.7 16.64 3.52 17.39 1.2 17.39C0.82 17.39 0.37 17.39 0 17.32C2.25 18.67 4.87 19.5 7.64 19.5C16.72 19.5 21.67 12 21.67 5.47C21.67 5.25 21.67 5.02 21.67 4.87C22.57 4.12 23.4 3.3 24.07 2.32Z" fill="#121127" fill-opacity="0.320000" fill-rule="nonzero"/>
</svg>
