<svg xmlns="http://www.w3.org/2000/svg" width="90.000000" height="36.000000" fill="none" viewBox="0 0 90 36"><defs><clipPath id="a"><rect width="89.259773" height="35.259773" fill="#fff" fill-opacity="0" rx="0.000000" transform="translate(.37 .37)"/></clipPath></defs><rect width="89.259773" height="35.259773" rx="0.000000" transform="translate(.37 .37)"/><g fill="#444BD3" clip-path="url(#a)"><path fill-opacity="1.000000" d="M34.25 7.87v19.02h6.95c5.7 0 9.05-3.53 9.05-9.55 0-6.03-3.37-9.47-9.05-9.47zm3.41 2.87h3.19c3.79 0 5.93 2.35 5.93 6.61 0 4.34-2.11 6.67-5.93 6.67h-3.19zm15.05 16.15h3.28V7.87h-3.28zm15.33-4.17c-.35 1.16-1.51 1.92-3.04 1.92-2.15 0-3.52-1.5-3.52-3.74v-.2h9.77v-1.07c0-4.25-2.48-7-6.45-7-4.03 0-6.59 2.91-6.59 7.33 0 4.46 2.53 7.21 6.72 7.21 3.31 0 5.76-1.82 6.19-4.45zm-3.23-7.55c1.89 0 3.16 1.39 3.22 3.37h-6.52c.13-1.96 1.46-3.37 3.3-3.37m13.78 6.71 2.9 5.01h3.59l-4.45-7.06 4.5-6.91h-3.6l-2.78 4.9h-.07l-2.82-4.9h-3.69l4.47 7-4.51 6.97h3.49l2.91-5.01z"/><path fill-opacity="0.320000" fill-rule="evenodd" d="M13.5 31.49c7.46 0 13.49-6.04 13.49-13.49 0-7.46-6.03-13.5-13.49-13.5 5.28 2.2 8.99 7.41 8.99 13.5 0 6.07-3.71 11.29-8.99 13.49"/><path fill-opacity="1.000000" d="M0 9.3c0-2.66 2.12-4.8 4.73-4.8h3.14c7.46 0 13.5 6.04 13.5 13.5 0 7.45-6.04 13.5-13.5 13.5H4.73C2.12 31.5 0 29.35 0 26.7z"/></g></svg>