<svg xmlns="http://www.w3.org/2000/svg" width="88.000000" height="36.000000" fill="none" viewBox="0 0 88 36"><defs><clipPath id="a"><rect width="87.259773" height="35.259773" fill="#fff" fill-opacity="0" rx="0.000000" transform="translate(.37 .37)"/></clipPath></defs><rect width="87.259773" height="35.259773" rx="0.000000" transform="translate(.37 .37)"/><g fill="#121127" clip-path="url(#a)"><path fill-opacity="1.000000" d="M33.49 7.87v19.02h6.8c5.57 0 8.84-3.53 8.84-9.55 0-6.03-3.29-9.47-8.84-9.47zm3.33 2.87h3.12c3.71 0 5.8 2.35 5.8 6.61 0 4.34-2.06 6.67-5.8 6.67h-3.12zm14.72 16.15h3.21V7.87h-3.21zm14.99-4.18c-.35 1.17-1.48 1.93-2.98 1.93-2.1 0-3.44-1.5-3.44-3.74v-.2h9.55v-1.07c0-4.25-2.42-7-6.3-7-3.94 0-6.44 2.91-6.44 7.33 0 4.46 2.47 7.21 6.57 7.21 3.24 0 5.63-1.82 6.05-4.46zm-3.16-7.54c1.85 0 3.08 1.39 3.15 3.37h-6.38c.13-1.96 1.43-3.37 3.23-3.37m13.47 6.71 2.84 5.01h3.51l-4.35-7.06 4.4-6.91h-3.52L77 17.82h-.07l-2.75-4.9h-3.61l4.37 7-4.41 6.97h3.41l2.84-5.01z"/><path fill-opacity="0.320000" fill-rule="evenodd" d="M13.2 31.49c7.29 0 13.19-6.04 13.19-13.49 0-7.46-5.9-13.5-13.19-13.5 5.17 2.2 8.79 7.41 8.79 13.5 0 6.07-3.62 11.29-8.79 13.49"/><path fill-opacity="1.000000" d="M0 9.3c0-2.66 2.07-4.8 4.63-4.8H7.7c7.29 0 13.2 6.04 13.2 13.5 0 7.45-5.91 13.5-13.2 13.5H4.63C2.07 31.5 0 29.35 0 26.7z"/></g></svg>