<svg width="90.000000" height="36.000000" viewBox="0 0 90 36" fill="none" xmlns="http://www.w3.org/2000/svg" xmlns:xlink="http://www.w3.org/1999/xlink">
	<desc>
			Created with Pixso.
	</desc>
	<defs>
		<clipPath id="clip1_1630">
			<rect id="dlex-footer" rx="0.000000" width="89.259773" height="35.259773" transform="translate(0.370114 0.370114)" fill="white" fill-opacity="0"/>
		</clipPath>
	</defs>
	<rect id="dlex-footer" rx="0.000000" width="89.259773" height="35.259773" transform="translate(0.370114 0.370114)" fill="#FFFFFF" fill-opacity="0"/>
	<g clip-path="url(#clip1_1630)">
		<path id="Vector" d="M34.25 7.87L34.25 26.89L41.2 26.89C46.9 26.89 50.25 23.36 50.25 17.34C50.25 11.31 46.88 7.87 41.2 7.87L34.25 7.87ZM37.66 10.74L40.85 10.74C44.64 10.74 46.78 13.09 46.78 17.35C46.78 21.69 44.67 24.02 40.85 24.02L37.66 24.02L37.66 10.74Z" fill="#444BD3" fill-opacity="1.000000" fill-rule="nonzero"/>
		<path id="Vector" d="M52.71 26.89L55.99 26.89L55.99 7.87L52.71 7.87L52.71 26.89Z" fill="#444BD3" fill-opacity="1.000000" fill-rule="nonzero"/>
		<path id="Vector" d="M68.04 22.72C67.69 23.88 66.53 24.64 65 24.64C62.85 24.64 61.48 23.14 61.48 20.9L61.48 20.7L71.25 20.7L71.25 19.63C71.25 15.38 68.77 12.63 64.8 12.63C60.77 12.63 58.21 15.54 58.21 19.96C58.21 24.42 60.74 27.17 64.93 27.17C68.24 27.17 70.69 25.35 71.12 22.72L68.04 22.72ZM64.81 15.17C66.7 15.17 67.97 16.56 68.03 18.54L61.51 18.54C61.64 16.58 62.97 15.17 64.81 15.17Z" fill="#444BD3" fill-opacity="1.000000" fill-rule="nonzero"/>
		<path id="Vector" d="M78.59 21.88L81.49 26.89L85.08 26.89L80.63 19.83L85.13 12.92L81.53 12.92L78.75 17.82L78.68 17.82L75.86 12.92L72.17 12.92L76.64 19.92L72.13 26.89L75.62 26.89L78.53 21.88L78.59 21.88Z" fill="#444BD3" fill-opacity="1.000000" fill-rule="nonzero"/>
		<path id="Vector" d="M13.5 31.49C20.96 31.49 26.99 25.45 26.99 18C26.99 10.54 20.96 4.5 13.5 4.5C18.78 6.7 22.49 11.91 22.49 18C22.49 24.07 18.78 29.29 13.5 31.49Z" fill="#444BD3" fill-opacity="0.320000" fill-rule="evenodd"/>
		<path id="Vector" d="M0 9.3C0 6.64 2.12 4.5 4.73 4.5L7.87 4.5C15.33 4.5 21.37 10.54 21.37 18C21.37 25.45 15.33 31.5 7.87 31.5L4.73 31.5C2.12 31.5 0 29.35 0 26.7L0 9.3Z" fill="#444BD3" fill-opacity="1.000000" fill-rule="nonzero"/>
	</g>
</svg>
