<svg xmlns="http://www.w3.org/2000/svg" width="48.000000" height="48.000000" fill="none" viewBox="0 0 48 48"><defs><linearGradient id="a" x1="30.000000" x2="30.000000" y1="0.000000" y2="36.000000" gradientUnits="userSpaceOnUse"><stop stop-color="#DEDEDE"/><stop offset="1.000000" stop-color="#DEDEDE" stop-opacity="0.000000"/></linearGradient><clipPath id="b"><rect width="31.000000" height="31.000000" fill="#fff" fill-opacity="0" rx="0.000000" transform="translate(.5 16.5)"/></clipPath></defs><path fill="url(#a)" fill-opacity="1.000000" fill-rule="evenodd" d="M26.81 3.18 15.18 14.81a4.503 4.503 0 0 0 0 6.37l11.63 11.63a4.503 4.503 0 0 0 6.37 0l11.63-11.63a4.503 4.503 0 0 0 0-6.37L33.18 3.18a4.503 4.503 0 0 0-6.37 0"/><g fill-opacity="1.000000" clip-path="url(#b)"><path fill="#90ECF4" d="M4 39.03v-10.5c0-2.99 0-4.48.58-5.62a5.25 5.25 0 0 1 2.33-2.33C8.05 20 9.54 20 12.53 20h6.93c2.99 0 4.48 0 5.62.58 1.01.51 1.82 1.32 2.33 2.33.59 1.14.59 2.63.59 5.62v1.6c0 2.99 0 4.48-.59 5.62-.51 1-1.32 1.82-2.33 2.33-1.14.58-2.63.58-5.62.58h-5.65c-.67 0-1.01 0-1.32.08q-.42.105-.78.33c-.28.17-.51.41-.97.9L9.5 41.25c-1.72 1.78-2.58 2.67-3.32 2.74-.65.06-1.28-.19-1.7-.68C4 42.74 4 41.51 4 39.03"/><path fill="#444BD3" fill-rule="evenodd" d="M9.33 26.66c0-.73.6-1.33 1.33-1.33h10.67a1.33 1.33 0 1 1 0 2.66H10.66c-.73 0-1.33-.59-1.33-1.33m0 5.33c0-.73.6-1.33 1.33-1.33h4c.74 0 1.33.6 1.33 1.33 0 .74-.59 1.34-1.33 1.34h-4c-.73 0-1.33-.6-1.33-1.34"/></g></svg>