<svg xmlns="http://www.w3.org/2000/svg" width="48.000000" height="48.000000" fill="none" viewBox="0 0 48 48"><defs><linearGradient id="a" x1="30.000000" x2="30.000000" y1="0.000000" y2="36.000000" gradientUnits="userSpaceOnUse"><stop stop-color="#DEDEDE"/><stop offset="1.000000" stop-color="#DEDEDE" stop-opacity="0.000000"/></linearGradient><clipPath id="b"><rect width="31.000000" height="31.000000" fill="#fff" fill-opacity="0" rx="0.000000" transform="translate(.5 16.5)"/></clipPath></defs><path fill="url(#a)" fill-opacity="1.000000" fill-rule="evenodd" d="M26.81 3.18 15.18 14.81a4.503 4.503 0 0 0 0 6.37l11.63 11.63a4.503 4.503 0 0 0 6.37 0l11.63-11.63a4.503 4.503 0 0 0 0-6.37L33.18 3.18a4.503 4.503 0 0 0-6.37 0"/><g fill-opacity="1.000000" clip-path="url(#b)"><path fill="#90ECF4" d="M5.33 21.33A2.67 2.67 0 0 0 2.66 24v13.33c0 1.47 1.2 2.67 2.67 2.67h13.33V24c0-1.48-1.19-2.67-2.66-2.67z"/><path fill="#444BD3" d="M22.15 25.33h-3.49v14.66h8c1.47 0 2.67-1.19 2.67-2.66v-5.22c0-.75-.32-1.46-.87-1.97l-4.52-4.12a2.7 2.7 0 0 0-1.79-.69"/><path fill="#444BD3" fill-rule="evenodd" d="M9.33 42.66C10.8 42.66 12 41.47 12 40a2.67 2.67 0 1 0-5.34 0c0 1.47 1.2 2.66 2.67 2.66m16.55-.78c.5-.5.78-1.18.78-1.88h-5.33a2.665 2.665 0 0 0 4.55 1.88"/></g></svg>