<svg xmlns="http://www.w3.org/2000/svg" width="24.000000" height="23.852539" fill="none" viewBox="0 0 24 23.8525"><path fill="#121127" fill-opacity="0.320000" d="M24 11.99c-.01-2.29-.66-4.54-1.9-6.47s-3-3.46-5.08-4.42c-2.09-.96-4.4-1.31-6.67-.99C8.08.42 5.94 1.38 4.2 2.87A12.1 12.1 0 0 0 .51 8.51c-.66 2.2-.69 4.54-.06 6.74a11.99 11.99 0 0 0 9.67 8.6v-8.39H7.07v-3.47h3.05V9.35c0-3.01 1.79-4.67 4.53-4.67.9.01 1.8.09 2.69.23v2.96h-1.51c-.26-.04-.52-.01-.77.07s-.48.22-.66.4c-.19.18-.34.4-.43.64s-.12.5-.1.76v2.25h3.33l-.53 3.47h-2.8v8.39c2.82-.45 5.39-1.89 7.25-4.06S24 14.85 24 11.99"/></svg>