<svg xmlns="http://www.w3.org/2000/svg" width="24.000000" height="24.000000" fill="none" viewBox="0 0 24 24"><defs><clipPath id="a"><rect width="23.000000" height="23.000000" fill="#fff" fill-opacity="0" rx="0.000000" transform="translate(.5 .5)"/></clipPath></defs><rect width="23.000000" height="23.000000" rx="0.000000" transform="translate(.5 .5)"/><g stroke="#FFF" stroke-linejoin="round" stroke-opacity="1.000000" stroke-width="2.000000" clip-path="url(#a)"><path d="M20 8c.55 0 1 .44 1 1v2c0 .55-.45 1-1 1H4c-.56 0-1-.45-1-1V9c0-.56.44-1 1-1z"/><path stroke-linecap="round" d="M12 8v13m7-9v7c0 .53-.22 1.03-.59 1.41-.38.37-.88.59-1.41.59H7c-.54 0-1.04-.22-1.42-.59C5.21 20.03 5 19.53 5 19v-7m2.5-4c-.67 0-1.3-.27-1.77-.74S5 6.16 5 5.5c0-.67.26-1.3.73-1.77S6.83 3 7.5 3c.96-.02 1.91.45 2.71 1.34S11.63 6.5 12 8c.36-1.5.98-2.77 1.78-3.66.81-.89 1.75-1.36 2.72-1.34.66 0 1.29.26 1.76.73S19 4.83 19 5.5c0 .66-.27 1.29-.74 1.76S17.16 8 16.5 8"/></g></svg>