<svg xmlns="http://www.w3.org/2000/svg" width="24.000000" height="23.411621" fill="none" viewBox="0 0 24 23.4116"><path fill="#121127" fill-opacity="0.320000" fill-rule="evenodd" d="M12 0C5.39 0 0 5.39 0 12c0 5.32 3.45 9.82 8.17 11.39.6.08.83-.22.83-.59v-2.03c-3.38.75-4.05-1.57-4.05-1.57-.53-1.35-1.35-1.73-1.35-1.73-1.13-.75.07-.75.07-.75 1.2.07 1.87 1.2 1.87 1.2 1.06 1.8 2.78 1.28 3.53.97.07-.75.45-1.27.75-1.57-2.7-.3-5.47-1.35-5.47-5.93 0-1.27.44-2.39 1.19-3.22-.15-.3-.52-1.5.16-3.15 0 0 .97-.3 3.3 1.2.97-.3 1.95-.37 3-.37s2.02.15 3 .37c2.32-1.58 3.29-1.28 3.29-1.28.68 1.66.23 2.86.16 3.16.75.82 1.2 1.87 1.2 3.22 0 4.57-2.78 5.63-5.48 5.93.45.37.83 1.12.83 2.25v3.3c0 .3.22.67.82.59A12 12 0 0 0 24 12c0-6.61-5.4-12-12-12"/></svg>