<svg xmlns="http://www.w3.org/2000/svg" width="22.504517" height="22.502197" fill="none" viewBox="0 0 22.5045 22.5022"><path fill="#121127" fill-opacity="0.320000" d="M11.25 2.02c3 0 3.36.01 4.54.07.71 0 1.42.13 2.09.38.49.18.93.47 1.29.84.38.37.66.81.84 1.3.25.67.38 1.37.39 2.09.06 1.18.07 1.55.07 4.55s-.01 3.36-.07 4.54c0 .71-.13 1.42-.38 2.09-.19.49-.48.93-.84 1.29-.37.37-.81.66-1.3.84-.67.25-1.37.38-2.09.39-1.18.06-1.54.07-4.54.07-3.01 0-3.36-.01-4.55-.07a6.2 6.2 0 0 1-2.09-.39c-.49-.18-.93-.46-1.29-.84-.37-.36-.66-.8-.84-1.29a6.2 6.2 0 0 1-.39-2.09c-.06-1.18-.07-1.54-.07-4.54 0-3.01.01-3.37.07-4.55 0-.71.13-1.42.38-2.09.18-.49.47-.93.85-1.29.36-.38.8-.66 1.29-.84a6.2 6.2 0 0 1 2.09-.39c1.19-.06 1.55-.07 4.55-.07m0-2.02C8.19 0 7.81.01 6.61.06c-.94.02-1.86.2-2.73.53-.75.28-1.43.72-2 1.29S.87 3.13.59 3.88C.26 4.75.08 5.67.06 6.61.01 7.81 0 8.19 0 11.25c0 3.05.01 3.43.06 4.63.02.94.2 1.86.53 2.73.28.75.72 1.43 1.3 2 .56.57 1.24 1.01 1.99 1.29.87.33 1.8.51 2.73.53 1.2.05 1.58.07 4.64.07 3.05 0 3.44-.02 4.64-.07.93-.02 1.85-.2 2.73-.53.74-.28 1.42-.73 1.99-1.29a5.8 5.8 0 0 0 1.3-2c.32-.87.5-1.79.52-2.73.06-1.2.07-1.58.07-4.63 0-3.06-.01-3.44-.07-4.64-.02-.94-.2-1.86-.52-2.73a5.8 5.8 0 0 0-1.3-2A5.5 5.5 0 0 0 18.62.59c-.88-.33-1.8-.51-2.73-.53C14.68.01 14.3 0 11.25 0"/><path fill="#121127" fill-opacity="0.320000" d="M11.25 5.47c-1.15 0-2.26.34-3.21.97-.95.64-1.69 1.54-2.13 2.6a5.75 5.75 0 0 0-.33 3.33c.22 1.12.77 2.15 1.58 2.96s1.84 1.36 2.96 1.58 2.28.11 3.34-.33a5.85 5.85 0 0 0 2.59-2.13 5.78 5.78 0 0 0-.72-7.29 5.78 5.78 0 0 0-4.08-1.69m0 9.53c-.75 0-1.47-.22-2.09-.64a3.66 3.66 0 0 1-1.38-1.68c-.28-.68-.36-1.44-.21-2.17.14-.72.5-1.39 1.02-1.92.53-.52 1.2-.88 1.92-1.02a3.75 3.75 0 0 1 2.17.21c.69.28 1.27.77 1.68 1.38.42.62.64 1.34.64 2.09 0 .99-.4 1.94-1.1 2.65-.71.7-1.66 1.1-2.65 1.1"/><path fill="#121127" fill-opacity="0.320000" fill-rule="evenodd" d="M18.6 5.24c0 .75-.6 1.35-1.35 1.35s-1.35-.6-1.35-1.35.6-1.35 1.35-1.35 1.35.6 1.35 1.35"/></svg>