<svg xmlns="http://www.w3.org/2000/svg" width="48.000000" height="48.000000" fill="none" viewBox="0 0 48 48"><defs><linearGradient id="a" x1="30.000000" x2="30.000000" y1="0.000000" y2="36.000000" gradientUnits="userSpaceOnUse"><stop stop-color="#DEDEDE"/><stop offset="1.000000" stop-color="#DEDEDE" stop-opacity="0.000000"/></linearGradient><clipPath id="b"><rect width="31.000000" height="31.000000" fill="#fff" fill-opacity="0" rx="0.000000" transform="translate(.5 16.5)"/></clipPath></defs><path fill="url(#a)" fill-opacity="1.000000" fill-rule="evenodd" d="M26.81 3.18 15.18 14.81a4.503 4.503 0 0 0 0 6.37l11.63 11.63a4.503 4.503 0 0 0 6.37 0l11.63-11.63a4.503 4.503 0 0 0 0-6.37L33.18 3.18a4.503 4.503 0 0 0-6.37 0"/><g fill-opacity="1.000000" clip-path="url(#b)"><path fill="#90ECF4" d="M5.33 44c0-.74.6-1.34 1.33-1.34h18.67a1.336 1.336 0 0 1 0 2.67H6.66c-.73 0-1.33-.6-1.33-1.33"/><path fill="#444BD3" fill-rule="evenodd" d="M23.93 19.83a4.01 4.01 0 0 0-5.66 0l-.55.56 7.22 7.21.55-.55a4.01 4.01 0 0 0 0-5.66zM7.33 31.14q.12-.42.39-.75l7.21 7.21c-.22.18-.47.32-.75.39l-6.99 1.95c-1.1.3-2.11-.71-1.8-1.81z"/><path fill="#90ECF4" d="m24.94 27.6-7.22-7.21-9.88 9.87c-.04.04-.08.09-.12.13l7.21 7.21c.05-.04.09-.08.13-.12z"/></g></svg>