<svg xmlns="http://www.w3.org/2000/svg" width="41.653831" height="41.654510" fill="none" viewBox="0 0 41.6538 41.6545"><path fill="#F15060" fill-opacity="1.000000" fill-rule="evenodd" d="M35.22 18.22c.96 3.6.6 7.24-.79 10.4a15.62 15.62 0 0 1-7.09 7.65c-3.29 1.74-6.92 2.2-10.31 1.55-3.66-.69-6.78-2.59-9.03-5.21a15.68 15.68 0 0 1-3.81-9.71c-.15-3.72 1.02-7.19 3.07-9.96 2.21-3 5.28-4.99 8.62-5.88l4.08 15.25z"/><path fill="#FF7482" fill-opacity="1.000000" fill-rule="evenodd" d="M17.59 4.08c2.78-.74 5.58-.7 8.18 0 2.77.75 5.18 2.19 7.08 4.09 2.03 2.03 3.39 4.48 4.08 7.08l-15.25 4.08z"/></svg>