<svg xmlns="http://www.w3.org/2000/svg" width="48.000000" height="48.000000" fill="none" viewBox="0 0 48 48"><defs><linearGradient id="a" x1="30.000000" x2="30.000000" y1="0.000000" y2="36.000000" gradientUnits="userSpaceOnUse"><stop stop-color="#DEDEDE"/><stop offset="1.000000" stop-color="#DEDEDE" stop-opacity="0.000000"/></linearGradient><clipPath id="b"><rect width="31.000000" height="31.000000" fill="#fff" fill-opacity="0" rx="0.000000" transform="translate(.5 16.5)"/></clipPath></defs><path fill="url(#a)" fill-opacity="1.000000" fill-rule="evenodd" d="M26.81 3.18 15.18 14.81a4.503 4.503 0 0 0 0 6.37l11.63 11.63a4.503 4.503 0 0 0 6.37 0l11.63-11.63a4.503 4.503 0 0 0 0-6.37L33.18 3.18a4.503 4.503 0 0 0-6.37 0"/><g fill-opacity="1.000000" clip-path="url(#b)"><path fill="#90ECF4" fill-rule="evenodd" d="M17.05 33.05a1.34 1.34 0 0 1 1.89 0l8.66 8.67c.53.52.53 1.36 0 1.88-.52.53-1.36.53-1.88 0l-8.67-8.66a1.34 1.34 0 0 1 0-1.89"/><path fill="#444BD3" d="M13.33 20A9.32 9.32 0 0 0 4 29.33c0 5.15 4.17 9.33 9.33 9.33 5.15 0 9.33-4.18 9.33-9.33 0-5.16-4.18-9.33-9.33-9.33"/></g></svg>