<svg xmlns="http://www.w3.org/2000/svg" width="149.244476" height="150.244446" fill="none" viewBox="0 0 149.244 150.244"><path fill="#FFBB24" fill-opacity="1.000000" d="m124.45 26.26 8.64 6.03c2.69 1.88 2.1 6.01-1 7.07l-9.79 3.32c-3.2 1.1-6.23-2.04-5.02-5.21l1.03-2.69c.23-.61.31-1.27.23-1.92l-.35-2.83c-.43-3.44 3.42-5.76 6.26-3.77"/><path stroke="#F15060" stroke-dasharray="5.2 5.2" stroke-opacity="1.000000" stroke-width="2.000000" d="M115.78 33.54C56.4 28.55 13.09 71.42 48.73 100.59c12.65 10.34 28.35 9.19 37.93-.39 10.73-10.73 12.26-28.35 1.53-39.08-23.75-23.75-81.6 1.15-39.84 88.12" opacity="0.200000"/></svg>