<svg xmlns="http://www.w3.org/2000/svg" width="24.074997" height="19.500000" fill="none" viewBox="0 0 24.075 19.5"><path fill="#121127" fill-opacity="0.320000" d="M24.07 2.32c-.9.37-1.8.68-2.85.75 1.05-.6 1.8-1.57 2.18-2.7-.98.6-2.03.98-3.15 1.2C19.35.6 18.07 0 16.72 0c-2.7 0-4.95 2.17-4.95 4.94 0 .38.08.75.15 1.13C7.8 5.85 4.19 3.89 1.72.89c-.45.75-.68 1.58-.68 2.48 0 1.73.91 3.23 2.18 4.13-.83 0-1.58-.23-2.25-.61v.08c0 2.4 1.73 4.35 3.97 4.8-.44.08-.82.15-1.27.15-.3 0-.6 0-.9-.07.6 1.95 2.48 3.37 4.58 3.45-1.65 1.34-3.83 2.09-6.15 2.09-.38 0-.83 0-1.2-.07 2.25 1.35 4.87 2.18 7.64 2.18 9.08 0 14.03-7.5 14.03-14.03v-.6c.9-.75 1.73-1.57 2.4-2.55"/></svg>